<svg width="656" height="368" viewBox="0 0 656 368" fill="none" xmlns="http://www.w3.org/2000/svg">
<rect width="656" height="368" fill="#01579B"/>
<path d="M177.735 172.154H161V160.077H209.804V172.154H193.147V213.923H177.735V172.154Z" fill="white"/>
<path d="M249.314 203.462H226.275L221.994 213.923H206.271L230.322 160.077H245.5L269.63 213.923H253.595L249.314 203.462ZM244.8 192.231L237.795 175L230.789 192.231H244.8Z" fill="white"/>
<path d="M317.743 202.154V213.923H273.999V160.077H316.731V171.846H289.255V180.923H313.462V192.308H289.255V202.154H317.743Z" fill="white"/>
<path d="M347.311 194.385L341.552 200.462V213.923H326.296V160.077H341.552V182.462L362.645 160.077H379.614L357.352 183.923L380.781 213.923H362.879L347.311 194.385Z" fill="white"/>
<path d="M390.352 214.615C387.861 214.615 385.759 213.795 384.047 212.154C382.334 210.513 381.478 208.436 381.478 205.923C381.478 203.359 382.308 201.282 383.969 199.692C385.681 198.103 387.809 197.308 390.352 197.308C392.946 197.308 395.074 198.103 396.734 199.692C398.395 201.282 399.225 203.359 399.225 205.923C399.225 208.436 398.369 210.513 396.656 212.154C394.996 213.795 392.894 214.615 390.352 214.615Z" fill="white"/>
<path d="M406.869 160.077H422.28V213.923H406.869V160.077Z" fill="white"/>
<path d="M460.722 215C454.962 215 449.772 213.795 445.154 211.385C440.588 208.974 436.981 205.641 434.335 201.385C431.74 197.128 430.443 192.333 430.443 187C430.443 181.667 431.74 176.872 434.335 172.615C436.981 168.359 440.588 165.026 445.154 162.615C449.772 160.205 454.962 159 460.722 159C466.481 159 471.645 160.205 476.211 162.615C480.829 165.026 484.436 168.359 487.03 172.615C489.677 176.872 491 181.667 491 187C491 192.333 489.677 197.128 487.03 201.385C484.436 205.641 480.829 208.974 476.211 211.385C471.645 213.795 466.481 215 460.722 215ZM460.722 202.385C463.472 202.385 465.963 201.744 468.194 200.462C470.425 199.179 472.189 197.385 473.487 195.077C474.784 192.718 475.433 190.026 475.433 187C475.433 183.974 474.784 181.308 473.487 179C472.189 176.641 470.425 174.821 468.194 173.538C465.963 172.256 463.472 171.615 460.722 171.615C457.971 171.615 455.48 172.256 453.249 173.538C451.018 174.821 449.254 176.641 447.956 179C446.659 181.308 446.01 183.974 446.01 187C446.01 190.026 446.659 192.718 447.956 195.077C449.254 197.385 451.018 199.179 453.249 200.462C455.48 201.744 457.971 202.385 460.722 202.385Z" fill="white"/>
</svg>
