<svg width="656" height="184" viewBox="0 0 656 184" fill="none" xmlns="http://www.w3.org/2000/svg">
<rect width="656" height="184" fill="white"/>
<path d="M166.507 120.066C169.001 117.576 173.037 117.583 175.523 120.081C178.009 122.579 178.002 126.623 175.508 129.113L164.435 140.17C154.219 150.371 137.56 150.519 127.172 140.513C127.112 140.456 122.487 135.92 107.227 120.957C97.0752 111.003 96.0638 95.0749 105.617 84.8464L123.429 65.7746C132.91 55.6219 150.387 54.5123 161.228 63.279L177.405 76.3621C180.145 78.5777 180.573 82.5985 178.361 85.3429C176.149 88.0873 172.135 88.516 169.396 86.3004L153.219 73.2173C147.549 68.6325 137.632 69.2622 132.74 74.5007L114.928 93.5727C110.277 98.5522 110.787 106.574 116.146 111.829C127.352 122.817 135.987 131.285 135.997 131.294C141.398 136.496 150.131 136.418 155.434 131.123L166.507 120.066Z" fill="#FFA116"/>
<path fill-rule="evenodd" clip-rule="evenodd" d="M139.607 109.001C136.086 109.001 133.232 106.142 133.232 102.615C133.232 99.0879 136.086 96.2286 139.607 96.2286H186.625C190.146 96.2286 193 99.0879 193 102.615C193 106.142 190.146 109.001 186.625 109.001H139.607Z" fill="#B3B3B3"/>
<path fill-rule="evenodd" clip-rule="evenodd" d="M148.413 39.0234C150.818 36.4477 154.852 36.3131 157.424 38.7228C159.995 41.1324 160.129 45.1739 157.724 47.7495L114.928 93.5729C110.277 98.552 110.787 106.574 116.146 111.829L135.91 131.209C138.426 133.676 138.469 137.72 136.006 140.24C133.543 142.761 129.506 142.804 126.99 140.337L107.227 120.957C97.0754 111.002 96.0641 95.0741 105.618 84.8463L148.413 39.0234Z" fill="black"/>
<path fill-rule="evenodd" clip-rule="evenodd" d="M230.914 75.8828V117.914C230.914 119.529 231.487 120.909 232.633 122.055C233.779 123.201 235.159 123.773 236.773 123.773H248.141C249.13 123.773 249.977 124.125 250.68 124.828C251.383 125.531 251.734 126.378 251.734 127.367V127.445C251.734 128.435 251.383 129.268 250.68 129.945C249.977 130.648 249.13 131 248.141 131H236.773C233.154 131 230.068 129.724 227.516 127.172C224.964 124.62 223.688 121.534 223.688 117.914V75.8828C223.688 74.8932 224.039 74.0469 224.742 73.3438C225.445 72.6667 226.279 72.3281 227.242 72.3281H227.359C228.323 72.3281 229.156 72.6667 229.859 73.3438C230.563 74.0469 230.914 74.8932 230.914 75.8828ZM276.188 95.6484C272.281 95.6484 268.948 97.0286 266.188 99.7891C263.453 102.549 262.086 105.883 262.086 109.789C262.086 110.492 262.138 111.182 262.242 111.859L286.969 100.688C284.156 97.3281 280.563 95.6484 276.188 95.6484ZM295.562 100.805C295.979 101.69 296.018 102.602 295.68 103.539C295.341 104.451 294.716 105.115 293.805 105.531C290.159 107.172 285.367 109.333 279.43 112.016C272.06 115.349 267.281 117.51 265.094 118.5C267.906 122.094 271.604 123.891 276.188 123.891C279.234 123.891 281.995 122.992 284.469 121.195C286.865 119.451 288.544 117.185 289.508 114.398C290.081 112.784 291.227 111.977 292.945 111.977C294.169 111.977 295.146 112.484 295.875 113.5C296.578 114.49 296.721 115.57 296.305 116.742C294.846 120.961 292.294 124.372 288.648 126.977C284.924 129.659 280.771 131 276.188 131C270.302 131 265.276 128.917 261.109 124.75C256.943 120.583 254.859 115.557 254.859 109.672C254.859 103.786 256.943 98.7604 261.109 94.5938C265.276 90.4271 270.302 88.3438 276.188 88.3438C280.432 88.3438 284.312 89.5026 287.828 91.8203C291.292 94.0859 293.87 97.0807 295.562 100.805ZM323.727 95.6484C319.82 95.6484 316.487 97.0286 313.727 99.7891C310.992 102.549 309.625 105.883 309.625 109.789C309.625 110.492 309.677 111.182 309.781 111.859L334.508 100.688C331.695 97.3281 328.102 95.6484 323.727 95.6484ZM343.102 100.805C343.518 101.69 343.557 102.602 343.219 103.539C342.88 104.451 342.255 105.115 341.344 105.531C337.698 107.172 332.906 109.333 326.969 112.016C319.599 115.349 314.82 117.51 312.633 118.5C315.445 122.094 319.143 123.891 323.727 123.891C326.773 123.891 329.534 122.992 332.008 121.195C334.404 119.451 336.083 117.185 337.047 114.398C337.62 112.784 338.766 111.977 340.484 111.977C341.708 111.977 342.685 112.484 343.414 113.5C344.117 114.49 344.26 115.57 343.844 116.742C342.385 120.961 339.833 124.372 336.188 126.977C332.464 129.659 328.31 131 323.727 131C317.841 131 312.815 128.917 308.648 124.75C304.482 120.583 302.398 115.557 302.398 109.672C302.398 103.786 304.482 98.7604 308.648 94.5938C312.815 90.4271 317.841 88.3438 323.727 88.3438C327.971 88.3438 331.852 89.5026 335.367 91.8203C338.831 94.0859 341.409 97.0807 343.102 100.805ZM354.781 72.3281C355.745 72.3281 356.578 72.6667 357.281 73.3438C357.984 74.0469 358.336 74.8932 358.336 75.8828V88.3438H365.367C366.331 88.3438 367.164 88.6953 367.867 89.3984C368.57 90.1016 368.922 90.9479 368.922 91.9375V92.0156C368.922 93.0052 368.57 93.8385 367.867 94.5156C367.164 95.2188 366.331 95.5703 365.367 95.5703H358.336V119.906C358.336 120.974 358.714 121.885 359.469 122.641C360.224 123.396 361.148 123.773 362.242 123.773H365.367C366.331 123.773 367.164 124.125 367.867 124.828C368.57 125.531 368.922 126.378 368.922 127.367V127.445C368.922 128.435 368.57 129.268 367.867 129.945C367.164 130.648 366.331 131 365.367 131H362.242C359.169 131 356.539 129.919 354.352 127.758C352.19 125.57 351.109 122.953 351.109 119.906V75.8828C351.109 74.8932 351.461 74.0469 352.164 73.3438C352.867 72.6667 353.701 72.3281 354.664 72.3281H354.781ZM402.75 72.3281C405.224 72.3281 407.659 72.6276 410.055 73.2266C411.852 73.6953 412.75 74.8411 412.75 76.6641V76.7812C412.75 77.9271 412.281 78.8646 411.344 79.5938C410.432 80.2969 409.417 80.5052 408.297 80.2188C406.474 79.75 404.625 79.5156 402.75 79.5156C396.656 79.5156 391.448 81.6771 387.125 86C382.802 90.3229 380.641 95.5442 380.641 101.664C380.641 107.784 382.802 113.005 387.125 117.328C391.448 121.625 396.656 123.773 402.75 123.773C404.625 123.773 406.474 123.552 408.297 123.109C409.417 122.823 410.432 123.031 411.344 123.734C412.281 124.438 412.75 125.375 412.75 126.547V126.625C412.75 128.474 411.852 129.633 410.055 130.102C407.659 130.701 405.224 131 402.75 131C394.651 131 387.737 128.135 382.008 122.406C376.279 116.677 373.414 109.763 373.414 101.664C373.414 93.5651 376.279 86.6511 382.008 80.9219C387.737 75.1927 394.651 72.3281 402.75 72.3281ZM439.156 95.6484C435.25 95.6484 431.917 97.0286 429.156 99.7891C426.422 102.549 425.055 105.883 425.055 109.789C425.055 113.669 426.422 116.99 429.156 119.75C431.917 122.51 435.25 123.891 439.156 123.891C443.063 123.891 446.383 122.51 449.117 119.75C451.878 116.99 453.258 113.669 453.258 109.789C453.258 105.883 451.878 102.549 449.117 99.7891C446.383 97.0286 443.063 95.6484 439.156 95.6484ZM439.156 88.3438C445.042 88.3438 450.068 90.4271 454.234 94.5938C458.401 98.7604 460.484 103.786 460.484 109.672C460.484 115.557 458.401 120.583 454.234 124.75C450.068 128.917 445.042 131 439.156 131C433.271 131 428.245 128.917 424.078 124.75C419.911 120.583 417.828 115.557 417.828 109.672C417.828 103.786 419.911 98.7604 424.078 94.5938C428.245 90.4271 433.271 88.3438 439.156 88.3438ZM487.281 95.6484C483.375 95.6484 480.042 97.0286 477.281 99.7891C474.547 102.549 473.18 105.883 473.18 109.789C473.18 113.669 474.547 116.99 477.281 119.75C480.042 122.51 483.375 123.891 487.281 123.891C491.188 123.891 494.508 122.51 497.242 119.75C500.003 116.99 501.383 113.669 501.383 109.789C501.383 105.883 500.003 102.549 497.242 99.7891C494.508 97.0286 491.188 95.6484 487.281 95.6484ZM505.055 72.3281C506.018 72.3281 506.852 72.6667 507.555 73.3438C508.258 74.0469 508.609 74.8932 508.609 75.8828V109.789C508.583 115.648 506.487 120.648 502.32 124.789C498.154 128.93 493.141 131 487.281 131C481.396 131 476.37 128.917 472.203 124.75C468.036 120.583 465.953 115.557 465.953 109.672C465.953 103.786 468.036 98.7604 472.203 94.5938C476.37 90.4271 481.396 88.3438 487.281 88.3438C492.646 88.3438 497.346 90.1276 501.383 93.6953V75.8828C501.383 74.8932 501.734 74.0469 502.438 73.3438C503.141 72.6667 503.974 72.3281 504.938 72.3281H505.055ZM536.578 95.6484C532.672 95.6484 529.339 97.0286 526.578 99.7891C523.844 102.549 522.477 105.883 522.477 109.789C522.477 110.492 522.529 111.182 522.633 111.859L547.359 100.688C544.547 97.3281 540.953 95.6484 536.578 95.6484ZM555.953 100.805C556.37 101.69 556.409 102.602 556.07 103.539C555.732 104.451 555.107 105.115 554.195 105.531C550.549 107.172 545.758 109.333 539.82 112.016C532.45 115.349 527.672 117.51 525.484 118.5C528.297 122.094 531.995 123.891 536.578 123.891C539.625 123.891 542.385 122.992 544.859 121.195C547.255 119.451 548.935 117.185 549.898 114.398C550.471 112.784 551.617 111.977 553.336 111.977C554.56 111.977 555.536 112.484 556.266 113.5C556.969 114.49 557.112 115.57 556.695 116.742C555.237 120.961 552.685 124.372 549.039 126.977C545.315 129.659 541.161 131 536.578 131C530.693 131 525.667 128.917 521.5 124.75C517.333 120.583 515.25 115.557 515.25 109.672C515.25 103.786 517.333 98.7604 521.5 94.5938C525.667 90.4271 530.693 88.3438 536.578 88.3438C540.823 88.3438 544.703 89.5026 548.219 91.8203C551.682 94.0859 554.26 97.0807 555.953 100.805Z" fill="black"/>
</svg>
