<svg width="18" height="15" xmlns="http://www.w3.org/2000/svg" class="social-icon"><path d="M18 1.737a7.397 7.397 0 01-2.124.571A3.679 3.679 0 0017.498.275a7.281 7.281 0 01-2.34.891A3.68 3.68 0 0012.462 0a3.688 3.688 0 00-3.688 3.69c0 .286.035.572.09.846A10.483 10.483 0 011.26.675a3.663 3.663 0 00-.502 1.862c0 1.281.651 2.41 1.644 3.074a3.72 3.72 0 01-1.668-.47v.046A3.69 3.69 0 003.69 8.81a3.907 3.907 0 01-.97.125c-.241 0-.468-.024-.697-.056a3.695 3.695 0 003.448 2.559 7.393 7.393 0 01-4.58 1.577c-.31 0-.595-.011-.891-.046a10.445 10.445 0 005.665 1.655c6.784 0 10.496-5.62 10.496-10.498 0-.16 0-.32-.01-.48A7.947 7.947 0 0018 1.737z"/></svg>